<svg xmlns="http://www.w3.org/2000/svg" xmlns:xlink="http://www.w3.org/1999/xlink" width="240" zoomAndPan="magnify" viewBox="0 0 180 192.749996" height="257" preserveAspectRatio="xMidYMid meet" version="1.2"><defs><clipPath id="b61b8c3665"><path d="M 63 48 L 117 48 L 117 104.863281 L 63 104.863281 Z M 63 48 "/></clipPath><clipPath id="8c4120c3ce"><path d="M 25 48 L 62 48 L 62 104.863281 L 25 104.863281 Z M 25 48 "/></clipPath><clipPath id="cb94ec2762"><path d="M 117 48 L 155 48 L 155 104.863281 L 117 104.863281 Z M 117 48 "/></clipPath></defs><g id="546ea669a7"><path style=" stroke:none;fill-rule:nonzero;fill:#ff1616;fill-opacity:1;" d="M 87.453125 7.519531 C 87.453125 8.71875 88.4375 9.589844 89.632812 9.589844 C 89.632812 9.589844 89.742188 9.589844 89.742188 9.589844 C 90.941406 9.589844 91.921875 8.5 91.8125 7.300781 L 91.597656 2.179688 C 91.597656 0.980469 90.507812 0 89.308594 0.109375 C 88.109375 0.109375 87.128906 1.199219 87.238281 2.398438 Z M 87.453125 7.519531 "/><path style=" stroke:none;fill-rule:nonzero;fill:#ff1616;fill-opacity:1;" d="M 74.378906 7.300781 C 73.503906 6.539062 72.089844 6.539062 71.324219 7.519531 C 70.5625 8.390625 70.5625 9.808594 71.542969 10.570312 C 71.542969 10.570312 74.921875 13.621094 74.921875 13.621094 C 75.792969 14.386719 77.210938 14.386719 77.972656 13.40625 C 78.738281 12.53125 78.738281 11.117188 77.753906 10.351562 Z M 74.378906 7.300781 "/><path style=" stroke:none;fill-rule:nonzero;fill:#ff1616;fill-opacity:1;" d="M 105.109375 6.648438 L 101.949219 9.808594 C 101.078125 10.679688 101.078125 12.097656 101.949219 12.859375 C 102.820312 13.730469 104.238281 13.730469 105 12.859375 L 108.160156 9.699219 C 109.03125 8.828125 109.03125 7.410156 108.160156 6.648438 C 107.398438 5.777344 105.980469 5.777344 105.109375 6.648438 Z M 105.109375 6.648438 "/><path style=" stroke:none;fill-rule:nonzero;fill:#ff1616;fill-opacity:1;" d="M 83.96875 10.136719 C 85.058594 9.589844 85.492188 8.28125 84.949219 7.191406 L 82.988281 3.160156 C 82.441406 2.070312 81.132812 1.632812 80.042969 2.179688 C 78.953125 2.722656 78.519531 4.03125 79.0625 5.121094 C 79.0625 5.121094 81.023438 9.15625 81.023438 9.15625 C 81.460938 10.136719 82.878906 10.570312 83.96875 10.136719 Z M 83.96875 10.136719 "/><path style=" stroke:none;fill-rule:nonzero;fill:#ff1616;fill-opacity:1;" d="M 98.570312 8.609375 L 100.207031 4.46875 C 100.640625 3.378906 100.097656 2.070312 99.007812 1.632812 C 97.917969 1.199219 96.609375 1.742188 96.171875 2.832031 L 94.539062 6.976562 C 94.101562 8.066406 94.648438 9.371094 95.738281 9.808594 C 96.828125 10.246094 98.136719 9.699219 98.570312 8.609375 Z M 98.570312 8.609375 "/><path style=" stroke:none;fill-rule:nonzero;fill:#ff1616;fill-opacity:1;" d="M 105.546875 17.4375 C 105.980469 18.527344 107.289062 19.070312 108.378906 18.527344 L 112.519531 16.675781 C 113.609375 16.238281 114.15625 14.929688 113.609375 13.839844 C 113.175781 12.75 111.867188 12.207031 110.777344 12.75 L 106.636719 14.601562 C 105.546875 15.148438 105.109375 16.347656 105.546875 17.4375 Z M 105.546875 17.4375 "/><path style=" stroke:none;fill-rule:nonzero;fill:#ff1616;fill-opacity:1;" d="M 66.09375 15.691406 C 65.660156 16.78125 66.3125 18.089844 67.402344 18.417969 C 67.402344 18.417969 71.761719 19.945312 71.761719 19.945312 C 72.851562 20.269531 74.160156 19.726562 74.484375 18.636719 C 74.921875 17.546875 74.269531 16.238281 73.179688 15.910156 L 68.820312 14.386719 C 67.730469 13.949219 66.53125 14.496094 66.09375 15.691406 Z M 66.09375 15.691406 "/><path style=" stroke:none;fill-rule:nonzero;fill:#ff1616;fill-opacity:1;" d="M 78.628906 26.265625 C 79.828125 26.480469 80.917969 25.71875 81.242188 24.519531 C 82.113281 20.378906 85.710938 17.328125 89.960938 17.21875 C 94.210938 17.109375 98.027344 19.835938 99.332031 23.867188 C 99.660156 25.066406 100.96875 25.609375 102.058594 25.285156 C 103.257812 24.957031 103.800781 23.648438 103.476562 22.558594 C 101.621094 16.675781 96.0625 12.75 89.851562 12.859375 C 83.421875 13.078125 78.082031 17.4375 76.882812 23.648438 C 76.664062 24.847656 77.429688 25.9375 78.628906 26.265625 Z M 78.628906 26.265625 "/><path style=" stroke:none;fill-rule:nonzero;fill:#ff1616;fill-opacity:1;" d="M 24.027344 68.984375 C 24.027344 68.984375 52.035156 39.34375 52.035156 39.34375 L 64.894531 53.292969 L 67.839844 50.132812 C 67.839844 50.132812 54.980469 36.179688 54.980469 36.179688 C 53.125 34.21875 50.074219 34.875 48.441406 36.617188 L 20.757812 66.042969 C 19.886719 66.914062 19.996094 68.332031 20.867188 69.09375 C 21.738281 69.855469 23.15625 69.855469 24.027344 68.984375 Z M 24.027344 68.984375 "/><path style=" stroke:none;fill-rule:nonzero;fill:#ff1616;fill-opacity:1;" d="M 131.15625 36.074219 C 129.519531 34.65625 126.90625 34.4375 124.726562 36.617188 L 112.085938 50.132812 L 115.027344 53.292969 L 127.886719 39.558594 C 128.105469 39.34375 128.214844 39.234375 128.214844 39.234375 C 128.214844 39.234375 155.894531 68.984375 155.894531 69.09375 C 156.65625 69.964844 158.074219 69.964844 158.945312 69.203125 C 159.816406 68.332031 159.925781 67.023438 159.054688 66.152344 L 131.375 36.179688 C 131.265625 36.179688 131.265625 36.074219 131.15625 36.074219 Z M 131.15625 36.074219 "/><g clip-rule="nonzero" clip-path="url(#b61b8c3665)"><path style=" stroke:none;fill-rule:nonzero;fill:#ff1616;fill-opacity:1;" d="M 86.472656 49.476562 L 65.332031 71.164062 C 64.460938 72.035156 63.804688 73.5625 63.804688 74.761719 L 63.804688 100.042969 C 63.804688 102.550781 65.984375 104.621094 68.601562 104.621094 L 111.429688 104.621094 C 114.046875 104.621094 116.226562 102.550781 116.226562 100.042969 L 116.226562 74.761719 C 116.226562 73.453125 115.570312 72.035156 114.699219 71.164062 L 93.230469 49.367188 C 91.269531 47.625 88.328125 47.625 86.472656 49.476562 Z M 94.320312 100.371094 L 85.601562 100.371094 L 85.601562 87.292969 C 85.601562 84.894531 87.5625 82.933594 89.960938 82.933594 C 92.359375 82.933594 94.320312 84.894531 94.320312 87.292969 Z M 94.320312 100.371094 "/></g><g clip-rule="nonzero" clip-path="url(#8c4120c3ce)"><path style=" stroke:none;fill-rule:nonzero;fill:#ff1616;fill-opacity:1;" d="M 61.953125 56.453125 L 54.980469 49.367188 C 53.125 47.625 50.183594 47.625 48.332031 49.476562 L 27.1875 71.164062 C 26.316406 72.035156 25.664062 73.5625 25.664062 74.761719 L 25.664062 100.042969 C 25.664062 102.550781 27.84375 104.621094 30.457031 104.621094 L 60.753906 104.621094 C 59.882812 103.3125 59.445312 101.679688 59.445312 100.042969 L 59.445312 74.761719 C 59.445312 74.433594 59.445312 74.214844 59.445312 73.890625 C 58.140625 73.671875 56.941406 73.125 55.960938 72.253906 C 54.652344 71.054688 53.996094 69.421875 53.890625 67.675781 C 53.890625 65.933594 54.433594 64.296875 55.632812 62.992188 Z M 55.085938 87.292969 L 55.085938 100.371094 L 46.371094 100.371094 L 46.371094 87.292969 C 46.371094 84.894531 48.332031 82.933594 50.726562 82.933594 C 53.125 82.933594 55.085938 84.894531 55.085938 87.292969 Z M 55.085938 87.292969 "/></g><g clip-rule="nonzero" clip-path="url(#cb94ec2762)"><path style=" stroke:none;fill-rule:nonzero;fill:#ff1616;fill-opacity:1;" d="M 154.261719 100.152344 L 154.261719 74.761719 C 154.261719 73.453125 153.605469 72.035156 152.734375 71.164062 L 131.265625 49.367188 C 129.414062 47.625 126.46875 47.625 124.617188 49.476562 L 117.859375 56.453125 C 121.566406 60.375 124.179688 63.316406 124.179688 63.316406 C 125.378906 64.625 126.035156 66.261719 125.925781 68.003906 C 125.816406 69.746094 125.164062 71.382812 123.855469 72.582031 C 122.875 73.453125 121.785156 73.996094 120.476562 74.214844 C 120.476562 74.433594 120.476562 74.652344 120.476562 74.871094 L 120.476562 100.152344 C 120.476562 101.789062 120.039062 103.421875 119.167969 104.730469 L 149.464844 104.730469 C 152.082031 104.730469 154.261719 102.660156 154.261719 100.152344 Z M 133.554688 100.371094 L 124.835938 100.371094 L 124.835938 87.292969 C 124.835938 84.894531 126.796875 82.933594 129.195312 82.933594 C 131.59375 82.933594 133.554688 84.894531 133.554688 87.292969 Z M 133.554688 100.371094 "/></g><path style=" stroke:none;fill-rule:nonzero;fill:#ff1616;fill-opacity:1;" d="M 120.910156 69.3125 C 121.785156 68.441406 121.894531 67.132812 121.019531 66.261719 C 121.019531 66.261719 93.230469 36.289062 93.230469 36.289062 C 91.378906 34.328125 88.328125 34.984375 86.691406 36.726562 L 58.902344 66.042969 C 58.03125 66.914062 58.140625 68.332031 59.011719 69.09375 C 59.882812 69.964844 61.300781 69.855469 62.0625 68.984375 C 62.0625 68.984375 90.070312 39.34375 90.070312 39.34375 C 90.070312 39.34375 117.640625 69.09375 117.75 69.203125 C 118.625 69.964844 120.039062 70.074219 120.910156 69.3125 Z M 120.910156 69.3125 "/><g style="fill:#ff1616;fill-opacity:1;"><g transform="translate(23.347513, 133.691162)"><path style="stroke:none" d="M 9.828125 -6.1875 L 4.84375 -6.1875 L 4.84375 0 L 1.328125 0 L 1.328125 -14.421875 L 4.84375 -14.421875 L 4.84375 -8.78125 L 9.828125 -8.78125 L 9.828125 -14.421875 L 13.3125 -14.421875 L 13.3125 0 L 9.828125 0 Z M 9.828125 -6.1875 "/></g></g><g style="fill:#ff1616;fill-opacity:1;"><g transform="translate(38.01224, 133.691162)"><path style="stroke:none" d="M 0.578125 -5.046875 C 0.578125 -6.003906 0.710938 -6.847656 0.984375 -7.578125 C 1.265625 -8.304688 1.648438 -8.914062 2.140625 -9.40625 C 2.628906 -9.894531 3.203125 -10.265625 3.859375 -10.515625 C 4.515625 -10.773438 5.222656 -10.90625 5.984375 -10.90625 C 6.648438 -10.90625 7.21875 -10.820312 7.6875 -10.65625 C 8.15625 -10.5 8.539062 -10.273438 8.84375 -9.984375 C 9.144531 -9.691406 9.363281 -9.347656 9.5 -8.953125 C 9.644531 -8.566406 9.71875 -8.144531 9.71875 -7.6875 C 9.71875 -7.175781 9.585938 -6.691406 9.328125 -6.234375 C 9.078125 -5.785156 8.710938 -5.382812 8.234375 -5.03125 C 7.753906 -4.6875 7.175781 -4.398438 6.5 -4.171875 C 5.832031 -3.953125 5.070312 -3.804688 4.21875 -3.734375 C 4.320312 -3.304688 4.503906 -2.957031 4.765625 -2.6875 C 5.023438 -2.425781 5.425781 -2.296875 5.96875 -2.296875 C 6.28125 -2.296875 6.613281 -2.332031 6.96875 -2.40625 C 7.320312 -2.476562 7.648438 -2.554688 7.953125 -2.640625 C 8.304688 -2.742188 8.65625 -2.859375 9 -2.984375 L 9.640625 -0.765625 C 9.253906 -0.578125 8.832031 -0.414062 8.375 -0.28125 C 7.988281 -0.164062 7.539062 -0.0625 7.03125 0.03125 C 6.53125 0.132812 6 0.1875 5.4375 0.1875 C 4.570312 0.1875 3.828125 0.0625 3.203125 -0.1875 C 2.585938 -0.445312 2.082031 -0.800781 1.6875 -1.25 C 1.300781 -1.707031 1.019531 -2.257812 0.84375 -2.90625 C 0.664062 -3.550781 0.578125 -4.265625 0.578125 -5.046875 Z M 5.5625 -8.5 C 5.289062 -8.5 5.054688 -8.421875 4.859375 -8.265625 C 4.671875 -8.109375 4.519531 -7.898438 4.40625 -7.640625 C 4.289062 -7.390625 4.207031 -7.109375 4.15625 -6.796875 C 4.101562 -6.484375 4.066406 -6.175781 4.046875 -5.875 C 4.472656 -5.894531 4.832031 -5.960938 5.125 -6.078125 C 5.414062 -6.191406 5.648438 -6.332031 5.828125 -6.5 C 6.015625 -6.664062 6.148438 -6.847656 6.234375 -7.046875 C 6.328125 -7.253906 6.375 -7.441406 6.375 -7.609375 C 6.375 -7.878906 6.296875 -8.09375 6.140625 -8.25 C 5.992188 -8.414062 5.800781 -8.5 5.5625 -8.5 Z M 5.5625 -8.5 "/></g></g><g style="fill:#ff1616;fill-opacity:1;"><g transform="translate(48.222128, 133.691162)"><path style="stroke:none" d="M 10.171875 -5.140625 C 10.171875 -4.285156 10.222656 -3.570312 10.328125 -3 C 10.441406 -2.4375 10.578125 -1.984375 10.734375 -1.640625 C 10.910156 -1.222656 11.113281 -0.90625 11.34375 -0.6875 L 8.625 0.171875 C 8.46875 0.0234375 8.328125 -0.148438 8.203125 -0.359375 C 8.085938 -0.546875 7.976562 -0.769531 7.875 -1.03125 C 7.769531 -1.289062 7.679688 -1.597656 7.609375 -1.953125 C 7.367188 -1.285156 7.015625 -0.769531 6.546875 -0.40625 C 6.078125 -0.0507812 5.457031 0.125 4.6875 0.125 C 3.988281 0.125 3.378906 0 2.859375 -0.25 C 2.347656 -0.507812 1.921875 -0.867188 1.578125 -1.328125 C 1.234375 -1.796875 0.976562 -2.351562 0.8125 -3 C 0.65625 -3.65625 0.578125 -4.378906 0.578125 -5.171875 C 0.578125 -5.984375 0.707031 -6.738281 0.96875 -7.4375 C 1.226562 -8.132812 1.59375 -8.734375 2.0625 -9.234375 C 2.53125 -9.742188 3.09375 -10.140625 3.75 -10.421875 C 4.40625 -10.703125 5.128906 -10.84375 5.921875 -10.84375 C 6.359375 -10.84375 6.828125 -10.8125 7.328125 -10.75 C 7.828125 -10.6875 8.28125 -10.613281 8.6875 -10.53125 C 9.101562 -10.457031 9.445312 -10.390625 9.71875 -10.328125 C 10 -10.265625 10.148438 -10.234375 10.171875 -10.234375 Z M 5.25 -2.34375 C 5.457031 -2.34375 5.65625 -2.4375 5.84375 -2.625 C 6.039062 -2.8125 6.207031 -3.0625 6.34375 -3.375 C 6.488281 -3.6875 6.597656 -4.039062 6.671875 -4.4375 C 6.753906 -4.84375 6.796875 -5.273438 6.796875 -5.734375 L 6.796875 -8.203125 C 6.703125 -8.242188 6.5625 -8.28125 6.375 -8.3125 C 6.195312 -8.351562 6.046875 -8.375 5.921875 -8.375 C 5.578125 -8.375 5.289062 -8.296875 5.0625 -8.140625 C 4.84375 -7.992188 4.664062 -7.789062 4.53125 -7.53125 C 4.394531 -7.269531 4.296875 -6.953125 4.234375 -6.578125 C 4.179688 -6.210938 4.15625 -5.816406 4.15625 -5.390625 C 4.15625 -4.992188 4.160156 -4.613281 4.171875 -4.25 C 4.191406 -3.882812 4.238281 -3.5625 4.3125 -3.28125 C 4.394531 -3 4.503906 -2.769531 4.640625 -2.59375 C 4.785156 -2.425781 4.988281 -2.34375 5.25 -2.34375 Z M 5.25 -2.34375 "/></g></g><g style="fill:#ff1616;fill-opacity:1;"><g transform="translate(59.817493, 133.691162)"><path style="stroke:none" d="M 3.921875 0.078125 C 3.421875 0.078125 2.992188 0.0078125 2.640625 -0.125 C 2.296875 -0.269531 2.003906 -0.46875 1.765625 -0.71875 C 1.535156 -0.96875 1.367188 -1.253906 1.265625 -1.578125 C 1.160156 -1.898438 1.109375 -2.253906 1.109375 -2.640625 L 1.109375 -14.875 L 4.46875 -15.453125 L 4.46875 -3.375 C 4.46875 -3.03125 4.53125 -2.789062 4.65625 -2.65625 C 4.78125 -2.519531 5.003906 -2.453125 5.328125 -2.453125 C 5.484375 -2.453125 5.65625 -2.460938 5.84375 -2.484375 C 6.039062 -2.515625 6.21875 -2.546875 6.375 -2.578125 L 6.6875 -0.46875 C 6.476562 -0.363281 6.117188 -0.242188 5.609375 -0.109375 C 5.109375 0.015625 4.546875 0.078125 3.921875 0.078125 Z M 3.921875 0.078125 "/></g></g><g style="fill:#ff1616;fill-opacity:1;"><g transform="translate(66.659613, 133.691162)"><path style="stroke:none" d="M 0.21875 -10.609375 L 1.953125 -10.609375 L 2.328125 -12.8125 L 5.25 -13.453125 L 5.25 -10.609375 L 7.75 -10.609375 L 7.359375 -8.140625 L 5.25 -8.140625 L 5.25 -3.390625 C 5.25 -2.765625 5.570312 -2.453125 6.21875 -2.453125 C 6.570312 -2.453125 6.914062 -2.488281 7.25 -2.5625 C 7.414062 -2.601562 7.582031 -2.644531 7.75 -2.6875 L 8.328125 -0.421875 C 8.046875 -0.328125 7.648438 -0.21875 7.140625 -0.09375 C 6.640625 0.0195312 6.03125 0.078125 5.3125 0.078125 C 4.238281 0.078125 3.398438 -0.140625 2.796875 -0.578125 C 2.191406 -1.015625 1.890625 -1.757812 1.890625 -2.8125 L 1.890625 -8.140625 L 0.21875 -8.140625 Z M 0.21875 -10.609375 "/></g></g><g style="fill:#ff1616;fill-opacity:1;"><g transform="translate(75.015097, 133.691162)"><path style="stroke:none" d="M 4.578125 -9.890625 C 4.953125 -10.210938 5.378906 -10.453125 5.859375 -10.609375 C 6.335938 -10.765625 6.84375 -10.84375 7.375 -10.84375 C 8.476562 -10.84375 9.265625 -10.507812 9.734375 -9.84375 C 10.203125 -9.175781 10.4375 -8.273438 10.4375 -7.140625 L 10.4375 0 L 7.046875 0 L 7.046875 -6.65625 C 7.046875 -7.144531 6.984375 -7.539062 6.859375 -7.84375 C 6.742188 -8.15625 6.523438 -8.3125 6.203125 -8.3125 C 6.015625 -8.3125 5.820312 -8.25 5.625 -8.125 C 5.4375 -8.007812 5.265625 -7.832031 5.109375 -7.59375 C 4.953125 -7.363281 4.820312 -7.082031 4.71875 -6.75 C 4.625 -6.414062 4.578125 -6.039062 4.578125 -5.625 L 4.578125 0 L 1.21875 0 L 1.21875 -14.875 L 4.578125 -15.453125 Z M 4.578125 -9.890625 "/></g></g><g style="fill:#ff1616;fill-opacity:1;"><g transform="translate(86.567834, 133.691162)"><path style="stroke:none" d="M 10.265625 -4.921875 C 10.265625 -4.460938 10.300781 -4.035156 10.375 -3.640625 C 10.457031 -3.253906 10.550781 -2.875 10.65625 -2.5 C 10.757812 -2.125 10.851562 -1.738281 10.9375 -1.34375 C 11.019531 -0.945312 11.0625 -0.519531 11.0625 -0.0625 C 11.0625 1.425781 10.640625 2.570312 9.796875 3.375 C 8.960938 4.175781 7.820312 4.578125 6.375 4.578125 C 5.71875 4.578125 5.035156 4.5 4.328125 4.34375 C 3.617188 4.1875 2.921875 3.96875 2.234375 3.6875 L 3.03125 1.09375 C 3.65625 1.300781 4.203125 1.460938 4.671875 1.578125 C 5.140625 1.703125 5.632812 1.765625 6.15625 1.765625 C 6.726562 1.765625 7.1875 1.597656 7.53125 1.265625 C 7.882812 0.941406 8.0625 0.476562 8.0625 -0.125 C 8.0625 -0.40625 8.035156 -0.660156 7.984375 -0.890625 C 7.941406 -1.128906 7.863281 -1.394531 7.75 -1.6875 C 7.382812 -1.039062 6.878906 -0.578125 6.234375 -0.296875 C 5.597656 -0.015625 4.910156 0.125 4.171875 0.125 C 3.617188 0.125 3.144531 0.0351562 2.75 -0.140625 C 2.363281 -0.316406 2.046875 -0.5625 1.796875 -0.875 C 1.546875 -1.195312 1.367188 -1.585938 1.265625 -2.046875 C 1.160156 -2.503906 1.109375 -3.015625 1.109375 -3.578125 L 1.109375 -10.703125 L 4.5 -10.703125 L 4.5 -4.03125 C 4.5 -3.53125 4.554688 -3.125 4.671875 -2.8125 C 4.796875 -2.507812 5.019531 -2.359375 5.34375 -2.359375 C 5.53125 -2.359375 5.71875 -2.425781 5.90625 -2.5625 C 6.101562 -2.695312 6.28125 -2.890625 6.4375 -3.140625 C 6.59375 -3.390625 6.71875 -3.691406 6.8125 -4.046875 C 6.914062 -4.398438 6.96875 -4.800781 6.96875 -5.25 L 6.96875 -10.703125 L 10.359375 -10.703125 Z M 10.265625 -4.921875 "/></g></g><g style="fill:#ff1616;fill-opacity:1;"><g transform="translate(98.22714, 133.691162)"><path style="stroke:none" d=""/></g></g><g style="fill:#ff1616;fill-opacity:1;"><g transform="translate(103.662475, 133.691162)"><path style="stroke:none" d="M 9.828125 -6.1875 L 4.84375 -6.1875 L 4.84375 0 L 1.328125 0 L 1.328125 -14.421875 L 4.84375 -14.421875 L 4.84375 -8.78125 L 9.828125 -8.78125 L 9.828125 -14.421875 L 13.3125 -14.421875 L 13.3125 0 L 9.828125 0 Z M 9.828125 -6.1875 "/></g></g><g style="fill:#ff1616;fill-opacity:1;"><g transform="translate(118.327193, 133.691162)"><path style="stroke:none" d="M 5.625 -10.90625 C 7.3125 -10.90625 8.539062 -10.421875 9.3125 -9.453125 C 10.09375 -8.492188 10.484375 -7.160156 10.484375 -5.453125 C 10.484375 -4.640625 10.378906 -3.890625 10.171875 -3.203125 C 9.972656 -2.515625 9.660156 -1.914062 9.234375 -1.40625 C 8.816406 -0.90625 8.289062 -0.507812 7.65625 -0.21875 C 7.03125 0.0703125 6.296875 0.21875 5.453125 0.21875 C 4.597656 0.21875 3.863281 0.09375 3.25 -0.15625 C 2.632812 -0.40625 2.128906 -0.765625 1.734375 -1.234375 C 1.347656 -1.703125 1.054688 -2.273438 0.859375 -2.953125 C 0.671875 -3.628906 0.578125 -4.382812 0.578125 -5.21875 C 0.578125 -6.03125 0.675781 -6.785156 0.875 -7.484375 C 1.082031 -8.179688 1.394531 -8.78125 1.8125 -9.28125 C 2.238281 -9.78125 2.765625 -10.175781 3.390625 -10.46875 C 4.023438 -10.757812 4.769531 -10.90625 5.625 -10.90625 Z M 5.4375 -8.375 C 5.175781 -8.375 4.960938 -8.296875 4.796875 -8.140625 C 4.628906 -7.992188 4.5 -7.789062 4.40625 -7.53125 C 4.3125 -7.269531 4.242188 -6.960938 4.203125 -6.609375 C 4.171875 -6.253906 4.15625 -5.867188 4.15625 -5.453125 C 4.15625 -5.023438 4.175781 -4.617188 4.21875 -4.234375 C 4.257812 -3.859375 4.332031 -3.523438 4.4375 -3.234375 C 4.550781 -2.953125 4.707031 -2.726562 4.90625 -2.5625 C 5.101562 -2.40625 5.347656 -2.328125 5.640625 -2.328125 C 5.898438 -2.328125 6.113281 -2.40625 6.28125 -2.5625 C 6.457031 -2.71875 6.585938 -2.925781 6.671875 -3.1875 C 6.765625 -3.445312 6.828125 -3.753906 6.859375 -4.109375 C 6.898438 -4.460938 6.921875 -4.84375 6.921875 -5.25 C 6.921875 -5.6875 6.898438 -6.09375 6.859375 -6.46875 C 6.816406 -6.84375 6.742188 -7.171875 6.640625 -7.453125 C 6.535156 -7.742188 6.378906 -7.96875 6.171875 -8.125 C 5.972656 -8.289062 5.726562 -8.375 5.4375 -8.375 Z M 5.4375 -8.375 "/></g></g><g style="fill:#ff1616;fill-opacity:1;"><g transform="translate(129.411003, 133.691162)"><path style="stroke:none" d="M 12.515625 0 L 12.515625 -6.65625 C 12.515625 -7.144531 12.46875 -7.539062 12.375 -7.84375 C 12.289062 -8.15625 12.101562 -8.3125 11.8125 -8.3125 C 11.46875 -8.3125 11.144531 -8.066406 10.84375 -7.578125 C 10.550781 -7.085938 10.40625 -6.4375 10.40625 -5.625 L 10.40625 0 L 7.015625 0 L 7.015625 -6.65625 C 7.015625 -7.144531 6.972656 -7.539062 6.890625 -7.84375 C 6.816406 -8.15625 6.625 -8.3125 6.3125 -8.3125 C 5.957031 -8.3125 5.632812 -8.054688 5.34375 -7.546875 C 5.050781 -7.046875 4.90625 -6.367188 4.90625 -5.515625 L 4.90625 0 L 1.53125 0 L 1.53125 -5.546875 C 1.53125 -6.390625 1.46875 -7.09375 1.34375 -7.65625 C 1.226562 -8.21875 1.09375 -8.675781 0.9375 -9.03125 C 0.769531 -9.4375 0.578125 -9.757812 0.359375 -10 L 3.0625 -10.84375 C 3.175781 -10.707031 3.300781 -10.546875 3.4375 -10.359375 C 3.550781 -10.203125 3.660156 -10 3.765625 -9.75 C 3.867188 -9.5 3.960938 -9.21875 4.046875 -8.90625 C 4.390625 -9.570312 4.863281 -10.0625 5.46875 -10.375 C 6.070312 -10.6875 6.742188 -10.84375 7.484375 -10.84375 C 8.109375 -10.84375 8.613281 -10.71875 9 -10.46875 C 9.394531 -10.226562 9.710938 -9.875 9.953125 -9.40625 C 10.316406 -9.914062 10.753906 -10.28125 11.265625 -10.5 C 11.785156 -10.726562 12.359375 -10.84375 12.984375 -10.84375 C 13.535156 -10.84375 13.992188 -10.753906 14.359375 -10.578125 C 14.734375 -10.398438 15.03125 -10.148438 15.25 -9.828125 C 15.46875 -9.515625 15.625 -9.125 15.71875 -8.65625 C 15.820312 -8.195312 15.875 -7.691406 15.875 -7.140625 L 15.875 0 Z M 12.515625 0 "/></g></g><g style="fill:#ff1616;fill-opacity:1;"><g transform="translate(146.420386, 133.691162)"><path style="stroke:none" d="M 0.578125 -5.046875 C 0.578125 -6.003906 0.710938 -6.847656 0.984375 -7.578125 C 1.265625 -8.304688 1.648438 -8.914062 2.140625 -9.40625 C 2.628906 -9.894531 3.203125 -10.265625 3.859375 -10.515625 C 4.515625 -10.773438 5.222656 -10.90625 5.984375 -10.90625 C 6.648438 -10.90625 7.21875 -10.820312 7.6875 -10.65625 C 8.15625 -10.5 8.539062 -10.273438 8.84375 -9.984375 C 9.144531 -9.691406 9.363281 -9.347656 9.5 -8.953125 C 9.644531 -8.566406 9.71875 -8.144531 9.71875 -7.6875 C 9.71875 -7.175781 9.585938 -6.691406 9.328125 -6.234375 C 9.078125 -5.785156 8.710938 -5.382812 8.234375 -5.03125 C 7.753906 -4.6875 7.175781 -4.398438 6.5 -4.171875 C 5.832031 -3.953125 5.070312 -3.804688 4.21875 -3.734375 C 4.320312 -3.304688 4.503906 -2.957031 4.765625 -2.6875 C 5.023438 -2.425781 5.425781 -2.296875 5.96875 -2.296875 C 6.28125 -2.296875 6.613281 -2.332031 6.96875 -2.40625 C 7.320312 -2.476562 7.648438 -2.554688 7.953125 -2.640625 C 8.304688 -2.742188 8.65625 -2.859375 9 -2.984375 L 9.640625 -0.765625 C 9.253906 -0.578125 8.832031 -0.414062 8.375 -0.28125 C 7.988281 -0.164062 7.539062 -0.0625 7.03125 0.03125 C 6.53125 0.132812 6 0.1875 5.4375 0.1875 C 4.570312 0.1875 3.828125 0.0625 3.203125 -0.1875 C 2.585938 -0.445312 2.082031 -0.800781 1.6875 -1.25 C 1.300781 -1.707031 1.019531 -2.257812 0.84375 -2.90625 C 0.664062 -3.550781 0.578125 -4.265625 0.578125 -5.046875 Z M 5.5625 -8.5 C 5.289062 -8.5 5.054688 -8.421875 4.859375 -8.265625 C 4.671875 -8.109375 4.519531 -7.898438 4.40625 -7.640625 C 4.289062 -7.390625 4.207031 -7.109375 4.15625 -6.796875 C 4.101562 -6.484375 4.066406 -6.175781 4.046875 -5.875 C 4.472656 -5.894531 4.832031 -5.960938 5.125 -6.078125 C 5.414062 -6.191406 5.648438 -6.332031 5.828125 -6.5 C 6.015625 -6.664062 6.148438 -6.847656 6.234375 -7.046875 C 6.328125 -7.253906 6.375 -7.441406 6.375 -7.609375 C 6.375 -7.878906 6.296875 -8.09375 6.140625 -8.25 C 5.992188 -8.414062 5.800781 -8.5 5.5625 -8.5 Z M 5.5625 -8.5 "/></g></g><g style="fill:#ff1616;fill-opacity:1;"><g transform="translate(51.761512, 158.108307)"><path style="stroke:none" d="M 1.328125 -14.421875 C 1.453125 -14.421875 1.703125 -14.425781 2.078125 -14.4375 C 2.460938 -14.445312 2.890625 -14.453125 3.359375 -14.453125 C 3.835938 -14.453125 4.296875 -14.453125 4.734375 -14.453125 C 5.171875 -14.460938 5.507812 -14.46875 5.75 -14.46875 C 7.570312 -14.46875 8.9375 -14.117188 9.84375 -13.421875 C 10.75 -12.722656 11.203125 -11.695312 11.203125 -10.34375 C 11.203125 -9.425781 10.984375 -8.671875 10.546875 -8.078125 C 10.109375 -7.492188 9.515625 -7.039062 8.765625 -6.71875 C 9.191406 -6.46875 9.566406 -6.144531 9.890625 -5.75 C 10.210938 -5.351562 10.523438 -4.875 10.828125 -4.3125 C 11.128906 -3.75 11.429688 -3.101562 11.734375 -2.375 C 12.035156 -1.65625 12.375 -0.863281 12.75 0 L 8.96875 0 C 8.519531 -0.988281 8.140625 -1.863281 7.828125 -2.625 C 7.515625 -3.382812 7.222656 -4.023438 6.953125 -4.546875 C 6.679688 -5.066406 6.410156 -5.457031 6.140625 -5.71875 C 5.878906 -5.976562 5.566406 -6.109375 5.203125 -6.109375 L 4.84375 -6.109375 L 4.84375 0 L 1.328125 0 Z M 4.84375 -8.3125 L 5.734375 -8.3125 C 6.234375 -8.3125 6.65625 -8.460938 7 -8.765625 C 7.34375 -9.078125 7.515625 -9.554688 7.515625 -10.203125 C 7.515625 -10.472656 7.484375 -10.722656 7.421875 -10.953125 C 7.359375 -11.191406 7.253906 -11.398438 7.109375 -11.578125 C 6.972656 -11.753906 6.78125 -11.894531 6.53125 -12 C 6.28125 -12.113281 5.976562 -12.171875 5.625 -12.171875 L 4.84375 -12.171875 Z M 4.84375 -8.3125 "/></g></g><g style="fill:#ff1616;fill-opacity:1;"><g transform="translate(64.529201, 158.108307)"><path style="stroke:none" d="M 0.578125 -5.046875 C 0.578125 -6.003906 0.710938 -6.847656 0.984375 -7.578125 C 1.265625 -8.304688 1.648438 -8.914062 2.140625 -9.40625 C 2.628906 -9.894531 3.203125 -10.265625 3.859375 -10.515625 C 4.515625 -10.773438 5.222656 -10.90625 5.984375 -10.90625 C 6.648438 -10.90625 7.21875 -10.820312 7.6875 -10.65625 C 8.15625 -10.5 8.539062 -10.273438 8.84375 -9.984375 C 9.144531 -9.691406 9.363281 -9.347656 9.5 -8.953125 C 9.644531 -8.566406 9.71875 -8.144531 9.71875 -7.6875 C 9.71875 -7.175781 9.585938 -6.691406 9.328125 -6.234375 C 9.078125 -5.785156 8.710938 -5.382812 8.234375 -5.03125 C 7.753906 -4.6875 7.175781 -4.398438 6.5 -4.171875 C 5.832031 -3.953125 5.070312 -3.804688 4.21875 -3.734375 C 4.320312 -3.304688 4.503906 -2.957031 4.765625 -2.6875 C 5.023438 -2.425781 5.425781 -2.296875 5.96875 -2.296875 C 6.28125 -2.296875 6.613281 -2.332031 6.96875 -2.40625 C 7.320312 -2.476562 7.648438 -2.554688 7.953125 -2.640625 C 8.304688 -2.742188 8.65625 -2.859375 9 -2.984375 L 9.640625 -0.765625 C 9.253906 -0.578125 8.832031 -0.414062 8.375 -0.28125 C 7.988281 -0.164062 7.539062 -0.0625 7.03125 0.03125 C 6.53125 0.132812 6 0.1875 5.4375 0.1875 C 4.570312 0.1875 3.828125 0.0625 3.203125 -0.1875 C 2.585938 -0.445312 2.082031 -0.800781 1.6875 -1.25 C 1.300781 -1.707031 1.019531 -2.257812 0.84375 -2.90625 C 0.664062 -3.550781 0.578125 -4.265625 0.578125 -5.046875 Z M 5.5625 -8.5 C 5.289062 -8.5 5.054688 -8.421875 4.859375 -8.265625 C 4.671875 -8.109375 4.519531 -7.898438 4.40625 -7.640625 C 4.289062 -7.390625 4.207031 -7.109375 4.15625 -6.796875 C 4.101562 -6.484375 4.066406 -6.175781 4.046875 -5.875 C 4.472656 -5.894531 4.832031 -5.960938 5.125 -6.078125 C 5.414062 -6.191406 5.648438 -6.332031 5.828125 -6.5 C 6.015625 -6.664062 6.148438 -6.847656 6.234375 -7.046875 C 6.328125 -7.253906 6.375 -7.441406 6.375 -7.609375 C 6.375 -7.878906 6.296875 -8.09375 6.140625 -8.25 C 5.992188 -8.414062 5.800781 -8.5 5.5625 -8.5 Z M 5.5625 -8.5 "/></g></g><g style="fill:#ff1616;fill-opacity:1;"><g transform="translate(74.739089, 158.108307)"><path style="stroke:none" d="M 6.953125 -12.34375 C 6.878906 -12.457031 6.757812 -12.570312 6.59375 -12.6875 C 6.425781 -12.8125 6.238281 -12.875 6.03125 -12.875 C 5.707031 -12.875 5.429688 -12.765625 5.203125 -12.546875 C 4.972656 -12.328125 4.859375 -12.007812 4.859375 -11.59375 C 4.859375 -11.269531 4.882812 -10.972656 4.9375 -10.703125 L 7.671875 -10.703125 L 7.25 -8.140625 L 5.34375 -8.140625 L 5.34375 -0.359375 C 5.34375 0.453125 5.21875 1.132812 4.96875 1.6875 C 4.726562 2.238281 4.414062 2.707031 4.03125 3.09375 C 3.644531 3.476562 3.210938 3.796875 2.734375 4.046875 C 2.265625 4.304688 1.804688 4.539062 1.359375 4.75 L -0.171875 2.265625 C 0.515625 1.898438 1.046875 1.515625 1.421875 1.109375 C 1.796875 0.710938 1.984375 0.242188 1.984375 -0.296875 L 1.984375 -8.140625 L 0.34375 -8.140625 L 0.34375 -10.703125 L 1.984375 -10.703125 C 1.898438 -10.910156 1.832031 -11.128906 1.78125 -11.359375 C 1.726562 -11.585938 1.703125 -11.828125 1.703125 -12.078125 C 1.703125 -12.609375 1.796875 -13.078125 1.984375 -13.484375 C 2.171875 -13.890625 2.429688 -14.234375 2.765625 -14.515625 C 3.109375 -14.796875 3.507812 -15.007812 3.96875 -15.15625 C 4.4375 -15.3125 4.945312 -15.390625 5.5 -15.390625 C 6.28125 -15.390625 6.898438 -15.257812 7.359375 -15 C 7.828125 -14.75 8.226562 -14.429688 8.5625 -14.046875 Z M 6.953125 -12.34375 "/></g></g><g style="fill:#ff1616;fill-opacity:1;"><g transform="translate(82.604329, 158.108307)"><path style="stroke:none" d="M 0.578125 -5.046875 C 0.578125 -6.003906 0.710938 -6.847656 0.984375 -7.578125 C 1.265625 -8.304688 1.648438 -8.914062 2.140625 -9.40625 C 2.628906 -9.894531 3.203125 -10.265625 3.859375 -10.515625 C 4.515625 -10.773438 5.222656 -10.90625 5.984375 -10.90625 C 6.648438 -10.90625 7.21875 -10.820312 7.6875 -10.65625 C 8.15625 -10.5 8.539062 -10.273438 8.84375 -9.984375 C 9.144531 -9.691406 9.363281 -9.347656 9.5 -8.953125 C 9.644531 -8.566406 9.71875 -8.144531 9.71875 -7.6875 C 9.71875 -7.175781 9.585938 -6.691406 9.328125 -6.234375 C 9.078125 -5.785156 8.710938 -5.382812 8.234375 -5.03125 C 7.753906 -4.6875 7.175781 -4.398438 6.5 -4.171875 C 5.832031 -3.953125 5.070312 -3.804688 4.21875 -3.734375 C 4.320312 -3.304688 4.503906 -2.957031 4.765625 -2.6875 C 5.023438 -2.425781 5.425781 -2.296875 5.96875 -2.296875 C 6.28125 -2.296875 6.613281 -2.332031 6.96875 -2.40625 C 7.320312 -2.476562 7.648438 -2.554688 7.953125 -2.640625 C 8.304688 -2.742188 8.65625 -2.859375 9 -2.984375 L 9.640625 -0.765625 C 9.253906 -0.578125 8.832031 -0.414062 8.375 -0.28125 C 7.988281 -0.164062 7.539062 -0.0625 7.03125 0.03125 C 6.53125 0.132812 6 0.1875 5.4375 0.1875 C 4.570312 0.1875 3.828125 0.0625 3.203125 -0.1875 C 2.585938 -0.445312 2.082031 -0.800781 1.6875 -1.25 C 1.300781 -1.707031 1.019531 -2.257812 0.84375 -2.90625 C 0.664062 -3.550781 0.578125 -4.265625 0.578125 -5.046875 Z M 5.5625 -8.5 C 5.289062 -8.5 5.054688 -8.421875 4.859375 -8.265625 C 4.671875 -8.109375 4.519531 -7.898438 4.40625 -7.640625 C 4.289062 -7.390625 4.207031 -7.109375 4.15625 -6.796875 C 4.101562 -6.484375 4.066406 -6.175781 4.046875 -5.875 C 4.472656 -5.894531 4.832031 -5.960938 5.125 -6.078125 C 5.414062 -6.191406 5.648438 -6.332031 5.828125 -6.5 C 6.015625 -6.664062 6.148438 -6.847656 6.234375 -7.046875 C 6.328125 -7.253906 6.375 -7.441406 6.375 -7.609375 C 6.375 -7.878906 6.296875 -8.09375 6.140625 -8.25 C 5.992188 -8.414062 5.800781 -8.5 5.5625 -8.5 Z M 5.5625 -8.5 "/></g></g><g style="fill:#ff1616;fill-opacity:1;"><g transform="translate(92.814217, 158.108307)"><path style="stroke:none" d="M 6.546875 -7.625 C 6.390625 -7.625 6.21875 -7.582031 6.03125 -7.5 C 5.84375 -7.414062 5.664062 -7.285156 5.5 -7.109375 C 5.332031 -6.929688 5.191406 -6.703125 5.078125 -6.421875 C 4.960938 -6.148438 4.90625 -5.820312 4.90625 -5.4375 L 4.90625 0 L 1.53125 0 L 1.53125 -5.546875 C 1.53125 -6.390625 1.46875 -7.09375 1.34375 -7.65625 C 1.226562 -8.21875 1.09375 -8.675781 0.9375 -9.03125 C 0.769531 -9.4375 0.578125 -9.757812 0.359375 -10 L 3.0625 -10.84375 C 3.175781 -10.707031 3.300781 -10.546875 3.4375 -10.359375 C 3.53125 -10.203125 3.632812 -10.003906 3.75 -9.765625 C 3.863281 -9.523438 3.957031 -9.25 4.03125 -8.9375 C 4.382812 -9.613281 4.804688 -10.097656 5.296875 -10.390625 C 5.785156 -10.691406 6.363281 -10.84375 7.03125 -10.84375 C 7.332031 -10.84375 7.597656 -10.816406 7.828125 -10.765625 C 8.066406 -10.722656 8.265625 -10.671875 8.421875 -10.609375 L 7.546875 -7.390625 C 7.441406 -7.453125 7.304688 -7.503906 7.140625 -7.546875 C 6.984375 -7.597656 6.785156 -7.625 6.546875 -7.625 Z M 6.546875 -7.625 "/></g></g><g style="fill:#ff1616;fill-opacity:1;"><g transform="translate(101.297592, 158.108307)"><path style="stroke:none" d="M 6.546875 -7.625 C 6.390625 -7.625 6.21875 -7.582031 6.03125 -7.5 C 5.84375 -7.414062 5.664062 -7.285156 5.5 -7.109375 C 5.332031 -6.929688 5.191406 -6.703125 5.078125 -6.421875 C 4.960938 -6.148438 4.90625 -5.820312 4.90625 -5.4375 L 4.90625 0 L 1.53125 0 L 1.53125 -5.546875 C 1.53125 -6.390625 1.46875 -7.09375 1.34375 -7.65625 C 1.226562 -8.21875 1.09375 -8.675781 0.9375 -9.03125 C 0.769531 -9.4375 0.578125 -9.757812 0.359375 -10 L 3.0625 -10.84375 C 3.175781 -10.707031 3.300781 -10.546875 3.4375 -10.359375 C 3.53125 -10.203125 3.632812 -10.003906 3.75 -9.765625 C 3.863281 -9.523438 3.957031 -9.25 4.03125 -8.9375 C 4.382812 -9.613281 4.804688 -10.097656 5.296875 -10.390625 C 5.785156 -10.691406 6.363281 -10.84375 7.03125 -10.84375 C 7.332031 -10.84375 7.597656 -10.816406 7.828125 -10.765625 C 8.066406 -10.722656 8.265625 -10.671875 8.421875 -10.609375 L 7.546875 -7.390625 C 7.441406 -7.453125 7.304688 -7.503906 7.140625 -7.546875 C 6.984375 -7.597656 6.785156 -7.625 6.546875 -7.625 Z M 6.546875 -7.625 "/></g></g><g style="fill:#ff1616;fill-opacity:1;"><g transform="translate(109.780967, 158.108307)"><path style="stroke:none" d="M 10.171875 -5.140625 C 10.171875 -4.285156 10.222656 -3.570312 10.328125 -3 C 10.441406 -2.4375 10.578125 -1.984375 10.734375 -1.640625 C 10.910156 -1.222656 11.113281 -0.90625 11.34375 -0.6875 L 8.625 0.171875 C 8.46875 0.0234375 8.328125 -0.148438 8.203125 -0.359375 C 8.085938 -0.546875 7.976562 -0.769531 7.875 -1.03125 C 7.769531 -1.289062 7.679688 -1.597656 7.609375 -1.953125 C 7.367188 -1.285156 7.015625 -0.769531 6.546875 -0.40625 C 6.078125 -0.0507812 5.457031 0.125 4.6875 0.125 C 3.988281 0.125 3.378906 0 2.859375 -0.25 C 2.347656 -0.507812 1.921875 -0.867188 1.578125 -1.328125 C 1.234375 -1.796875 0.976562 -2.351562 0.8125 -3 C 0.65625 -3.65625 0.578125 -4.378906 0.578125 -5.171875 C 0.578125 -5.984375 0.707031 -6.738281 0.96875 -7.4375 C 1.226562 -8.132812 1.59375 -8.734375 2.0625 -9.234375 C 2.53125 -9.742188 3.09375 -10.140625 3.75 -10.421875 C 4.40625 -10.703125 5.128906 -10.84375 5.921875 -10.84375 C 6.359375 -10.84375 6.828125 -10.8125 7.328125 -10.75 C 7.828125 -10.6875 8.28125 -10.613281 8.6875 -10.53125 C 9.101562 -10.457031 9.445312 -10.390625 9.71875 -10.328125 C 10 -10.265625 10.148438 -10.234375 10.171875 -10.234375 Z M 5.25 -2.34375 C 5.457031 -2.34375 5.65625 -2.4375 5.84375 -2.625 C 6.039062 -2.8125 6.207031 -3.0625 6.34375 -3.375 C 6.488281 -3.6875 6.597656 -4.039062 6.671875 -4.4375 C 6.753906 -4.84375 6.796875 -5.273438 6.796875 -5.734375 L 6.796875 -8.203125 C 6.703125 -8.242188 6.5625 -8.28125 6.375 -8.3125 C 6.195312 -8.351562 6.046875 -8.375 5.921875 -8.375 C 5.578125 -8.375 5.289062 -8.296875 5.0625 -8.140625 C 4.84375 -7.992188 4.664062 -7.789062 4.53125 -7.53125 C 4.394531 -7.269531 4.296875 -6.953125 4.234375 -6.578125 C 4.179688 -6.210938 4.15625 -5.816406 4.15625 -5.390625 C 4.15625 -4.992188 4.160156 -4.613281 4.171875 -4.25 C 4.191406 -3.882812 4.238281 -3.5625 4.3125 -3.28125 C 4.394531 -3 4.503906 -2.769531 4.640625 -2.59375 C 4.785156 -2.425781 4.988281 -2.34375 5.25 -2.34375 Z M 5.25 -2.34375 "/></g></g><g style="fill:#ff1616;fill-opacity:1;"><g transform="translate(121.376333, 158.108307)"><path style="stroke:none" d="M 3.921875 0.078125 C 3.421875 0.078125 2.992188 0.0078125 2.640625 -0.125 C 2.296875 -0.269531 2.003906 -0.46875 1.765625 -0.71875 C 1.535156 -0.96875 1.367188 -1.253906 1.265625 -1.578125 C 1.160156 -1.898438 1.109375 -2.253906 1.109375 -2.640625 L 1.109375 -14.875 L 4.46875 -15.453125 L 4.46875 -3.375 C 4.46875 -3.03125 4.53125 -2.789062 4.65625 -2.65625 C 4.78125 -2.519531 5.003906 -2.453125 5.328125 -2.453125 C 5.484375 -2.453125 5.65625 -2.460938 5.84375 -2.484375 C 6.039062 -2.515625 6.21875 -2.546875 6.375 -2.578125 L 6.6875 -0.46875 C 6.476562 -0.363281 6.117188 -0.242188 5.609375 -0.109375 C 5.109375 0.015625 4.546875 0.078125 3.921875 0.078125 Z M 3.921875 0.078125 "/></g></g><g style="fill:#ff1616;fill-opacity:1;"><g transform="translate(27.803097, 182.525452)"><path style="stroke:none" d="M 5.6875 -14.625 C 6.195312 -14.625 6.691406 -14.578125 7.171875 -14.484375 C 7.648438 -14.398438 8.09375 -14.296875 8.5 -14.171875 C 8.914062 -14.046875 9.289062 -13.898438 9.625 -13.734375 C 9.957031 -13.566406 10.242188 -13.398438 10.484375 -13.234375 L 9.25 -10.890625 C 9.082031 -10.972656 8.875 -11.082031 8.625 -11.21875 C 8.382812 -11.351562 8.125 -11.484375 7.84375 -11.609375 C 7.570312 -11.742188 7.289062 -11.851562 7 -11.9375 C 6.707031 -12.019531 6.425781 -12.0625 6.15625 -12.0625 C 5.65625 -12.0625 5.285156 -11.957031 5.046875 -11.75 C 4.804688 -11.539062 4.6875 -11.28125 4.6875 -10.96875 C 4.695312 -10.726562 4.753906 -10.515625 4.859375 -10.328125 C 4.960938 -10.148438 5.113281 -9.972656 5.3125 -9.796875 C 5.507812 -9.617188 5.765625 -9.441406 6.078125 -9.265625 C 6.390625 -9.097656 6.769531 -8.921875 7.21875 -8.734375 C 7.789062 -8.492188 8.289062 -8.242188 8.71875 -7.984375 C 9.144531 -7.734375 9.492188 -7.441406 9.765625 -7.109375 C 10.046875 -6.785156 10.253906 -6.414062 10.390625 -6 C 10.535156 -5.59375 10.609375 -5.117188 10.609375 -4.578125 C 10.609375 -3.929688 10.488281 -3.316406 10.25 -2.734375 C 10.019531 -2.160156 9.6875 -1.660156 9.25 -1.234375 C 8.8125 -0.804688 8.28125 -0.472656 7.65625 -0.234375 C 7.03125 0.00390625 6.328125 0.125 5.546875 0.125 C 4.984375 0.125 4.453125 0.078125 3.953125 -0.015625 C 3.453125 -0.117188 2.988281 -0.25 2.5625 -0.40625 C 2.132812 -0.5625 1.742188 -0.726562 1.390625 -0.90625 C 1.035156 -1.082031 0.726562 -1.25 0.46875 -1.40625 L 1.625 -3.921875 C 1.71875 -3.847656 1.898438 -3.726562 2.171875 -3.5625 C 2.441406 -3.40625 2.75 -3.242188 3.09375 -3.078125 C 3.4375 -2.910156 3.785156 -2.765625 4.140625 -2.640625 C 4.492188 -2.515625 4.8125 -2.453125 5.09375 -2.453125 C 5.6875 -2.453125 6.117188 -2.585938 6.390625 -2.859375 C 6.671875 -3.140625 6.8125 -3.535156 6.8125 -4.046875 C 6.8125 -4.554688 6.640625 -4.941406 6.296875 -5.203125 C 5.953125 -5.472656 5.457031 -5.734375 4.8125 -5.984375 C 4.1875 -6.242188 3.628906 -6.515625 3.140625 -6.796875 C 2.660156 -7.078125 2.253906 -7.394531 1.921875 -7.75 C 1.585938 -8.113281 1.332031 -8.515625 1.15625 -8.953125 C 0.976562 -9.390625 0.890625 -9.898438 0.890625 -10.484375 C 0.890625 -11.117188 1.019531 -11.6875 1.28125 -12.1875 C 1.550781 -12.695312 1.90625 -13.132812 2.34375 -13.5 C 2.78125 -13.863281 3.285156 -14.140625 3.859375 -14.328125 C 4.441406 -14.523438 5.050781 -14.625 5.6875 -14.625 Z M 5.6875 -14.625 "/></g></g><g style="fill:#ff1616;fill-opacity:1;"><g transform="translate(39.014793, 182.525452)"><path style="stroke:none" d="M 0.578125 -5.046875 C 0.578125 -6.003906 0.710938 -6.847656 0.984375 -7.578125 C 1.265625 -8.304688 1.648438 -8.914062 2.140625 -9.40625 C 2.628906 -9.894531 3.203125 -10.265625 3.859375 -10.515625 C 4.515625 -10.773438 5.222656 -10.90625 5.984375 -10.90625 C 6.648438 -10.90625 7.21875 -10.820312 7.6875 -10.65625 C 8.15625 -10.5 8.539062 -10.273438 8.84375 -9.984375 C 9.144531 -9.691406 9.363281 -9.347656 9.5 -8.953125 C 9.644531 -8.566406 9.71875 -8.144531 9.71875 -7.6875 C 9.71875 -7.175781 9.585938 -6.691406 9.328125 -6.234375 C 9.078125 -5.785156 8.710938 -5.382812 8.234375 -5.03125 C 7.753906 -4.6875 7.175781 -4.398438 6.5 -4.171875 C 5.832031 -3.953125 5.070312 -3.804688 4.21875 -3.734375 C 4.320312 -3.304688 4.503906 -2.957031 4.765625 -2.6875 C 5.023438 -2.425781 5.425781 -2.296875 5.96875 -2.296875 C 6.28125 -2.296875 6.613281 -2.332031 6.96875 -2.40625 C 7.320312 -2.476562 7.648438 -2.554688 7.953125 -2.640625 C 8.304688 -2.742188 8.65625 -2.859375 9 -2.984375 L 9.640625 -0.765625 C 9.253906 -0.578125 8.832031 -0.414062 8.375 -0.28125 C 7.988281 -0.164062 7.539062 -0.0625 7.03125 0.03125 C 6.53125 0.132812 6 0.1875 5.4375 0.1875 C 4.570312 0.1875 3.828125 0.0625 3.203125 -0.1875 C 2.585938 -0.445312 2.082031 -0.800781 1.6875 -1.25 C 1.300781 -1.707031 1.019531 -2.257812 0.84375 -2.90625 C 0.664062 -3.550781 0.578125 -4.265625 0.578125 -5.046875 Z M 5.5625 -8.5 C 5.289062 -8.5 5.054688 -8.421875 4.859375 -8.265625 C 4.671875 -8.109375 4.519531 -7.898438 4.40625 -7.640625 C 4.289062 -7.390625 4.207031 -7.109375 4.15625 -6.796875 C 4.101562 -6.484375 4.066406 -6.175781 4.046875 -5.875 C 4.472656 -5.894531 4.832031 -5.960938 5.125 -6.078125 C 5.414062 -6.191406 5.648438 -6.332031 5.828125 -6.5 C 6.015625 -6.664062 6.148438 -6.847656 6.234375 -7.046875 C 6.328125 -7.253906 6.375 -7.441406 6.375 -7.609375 C 6.375 -7.878906 6.296875 -8.09375 6.140625 -8.25 C 5.992188 -8.414062 5.800781 -8.5 5.5625 -8.5 Z M 5.5625 -8.5 "/></g></g><g style="fill:#ff1616;fill-opacity:1;"><g transform="translate(49.224681, 182.525452)"><path style="stroke:none" d="M 6.546875 -7.625 C 6.390625 -7.625 6.21875 -7.582031 6.03125 -7.5 C 5.84375 -7.414062 5.664062 -7.285156 5.5 -7.109375 C 5.332031 -6.929688 5.191406 -6.703125 5.078125 -6.421875 C 4.960938 -6.148438 4.90625 -5.820312 4.90625 -5.4375 L 4.90625 0 L 1.53125 0 L 1.53125 -5.546875 C 1.53125 -6.390625 1.46875 -7.09375 1.34375 -7.65625 C 1.226562 -8.21875 1.09375 -8.675781 0.9375 -9.03125 C 0.769531 -9.4375 0.578125 -9.757812 0.359375 -10 L 3.0625 -10.84375 C 3.175781 -10.707031 3.300781 -10.546875 3.4375 -10.359375 C 3.53125 -10.203125 3.632812 -10.003906 3.75 -9.765625 C 3.863281 -9.523438 3.957031 -9.25 4.03125 -8.9375 C 4.382812 -9.613281 4.804688 -10.097656 5.296875 -10.390625 C 5.785156 -10.691406 6.363281 -10.84375 7.03125 -10.84375 C 7.332031 -10.84375 7.597656 -10.816406 7.828125 -10.765625 C 8.066406 -10.722656 8.265625 -10.671875 8.421875 -10.609375 L 7.546875 -7.390625 C 7.441406 -7.453125 7.304688 -7.503906 7.140625 -7.546875 C 6.984375 -7.597656 6.785156 -7.625 6.546875 -7.625 Z M 6.546875 -7.625 "/></g></g><g style="fill:#ff1616;fill-opacity:1;"><g transform="translate(57.708056, 182.525452)"><path style="stroke:none" d="M 10.140625 -10.703125 C 10.203125 -10.472656 10.257812 -10.101562 10.3125 -9.59375 C 10.375 -9.082031 10.40625 -8.546875 10.40625 -7.984375 C 10.40625 -6.515625 10.285156 -5.265625 10.046875 -4.234375 C 9.816406 -3.203125 9.46875 -2.363281 9 -1.71875 C 8.53125 -1.070312 7.9375 -0.601562 7.21875 -0.3125 C 6.5 -0.0195312 5.648438 0.125 4.671875 0.125 C 3.441406 0.125 2.539062 -0.21875 1.96875 -0.90625 C 1.394531 -1.601562 1.109375 -2.53125 1.109375 -3.6875 L 1.109375 -10.703125 L 4.46875 -10.703125 L 4.46875 -3.75 C 4.46875 -3.34375 4.523438 -2.992188 4.640625 -2.703125 C 4.753906 -2.410156 4.957031 -2.265625 5.25 -2.265625 C 5.582031 -2.265625 5.863281 -2.429688 6.09375 -2.765625 C 6.320312 -3.097656 6.503906 -3.53125 6.640625 -4.0625 C 6.773438 -4.59375 6.875 -5.1875 6.9375 -5.84375 C 7 -6.507812 7.03125 -7.171875 7.03125 -7.828125 C 7.03125 -8.535156 7 -9.117188 6.9375 -9.578125 C 6.875 -10.035156 6.820312 -10.410156 6.78125 -10.703125 Z M 10.140625 -10.703125 "/></g></g><g style="fill:#ff1616;fill-opacity:1;"><g transform="translate(68.898436, 182.525452)"><path style="stroke:none" d="M 3.8125 0.078125 C 3 0.078125 2.34375 -0.128906 1.84375 -0.546875 C 1.351562 -0.960938 1.109375 -1.554688 1.109375 -2.328125 L 1.109375 -10.703125 L 4.46875 -10.703125 L 4.46875 -3.28125 C 4.46875 -2.957031 4.519531 -2.738281 4.625 -2.625 C 4.726562 -2.507812 4.878906 -2.453125 5.078125 -2.453125 C 5.191406 -2.453125 5.300781 -2.460938 5.40625 -2.484375 C 5.519531 -2.503906 5.59375 -2.519531 5.625 -2.53125 L 5.921875 -0.421875 C 5.910156 -0.410156 5.847656 -0.378906 5.734375 -0.328125 C 5.617188 -0.273438 5.46875 -0.21875 5.28125 -0.15625 C 5.101562 -0.09375 4.882812 -0.0390625 4.625 0 C 4.363281 0.0507812 4.09375 0.078125 3.8125 0.078125 Z M 2.828125 -15.828125 C 3.429688 -15.828125 3.890625 -15.648438 4.203125 -15.296875 C 4.515625 -14.941406 4.671875 -14.492188 4.671875 -13.953125 C 4.671875 -13.398438 4.507812 -12.9375 4.1875 -12.5625 C 3.863281 -12.195312 3.382812 -12.015625 2.75 -12.015625 C 2.15625 -12.015625 1.695312 -12.195312 1.375 -12.5625 C 1.050781 -12.925781 0.890625 -13.359375 0.890625 -13.859375 C 0.890625 -14.421875 1.050781 -14.890625 1.375 -15.265625 C 1.707031 -15.640625 2.191406 -15.828125 2.828125 -15.828125 Z M 2.828125 -15.828125 "/></g></g><g style="fill:#ff1616;fill-opacity:1;"><g transform="translate(74.973213, 182.525452)"><path style="stroke:none" d="M 7.203125 -7.671875 C 7.035156 -7.867188 6.859375 -8.035156 6.671875 -8.171875 C 6.484375 -8.316406 6.25 -8.390625 5.96875 -8.390625 C 5.800781 -8.390625 5.609375 -8.363281 5.390625 -8.3125 C 5.179688 -8.257812 4.984375 -8.128906 4.796875 -7.921875 C 4.609375 -7.710938 4.453125 -7.410156 4.328125 -7.015625 C 4.210938 -6.628906 4.15625 -6.09375 4.15625 -5.40625 C 4.15625 -4.738281 4.222656 -4.203125 4.359375 -3.796875 C 4.492188 -3.398438 4.660156 -3.09375 4.859375 -2.875 C 5.066406 -2.664062 5.296875 -2.523438 5.546875 -2.453125 C 5.796875 -2.378906 6.035156 -2.34375 6.265625 -2.34375 C 6.429688 -2.34375 6.613281 -2.363281 6.8125 -2.40625 C 7.019531 -2.445312 7.210938 -2.492188 7.390625 -2.546875 C 7.566406 -2.597656 7.71875 -2.644531 7.84375 -2.6875 C 7.96875 -2.738281 8.039062 -2.765625 8.0625 -2.765625 L 8.671875 -0.53125 L 8.4375 -0.421875 C 8.28125 -0.335938 8.0625 -0.25 7.78125 -0.15625 C 7.507812 -0.0625 7.175781 0.015625 6.78125 0.078125 C 6.394531 0.148438 5.96875 0.1875 5.5 0.1875 C 4.632812 0.1875 3.890625 0.0625 3.265625 -0.1875 C 2.640625 -0.445312 2.125 -0.800781 1.71875 -1.25 C 1.320312 -1.707031 1.03125 -2.257812 0.84375 -2.90625 C 0.664062 -3.550781 0.578125 -4.265625 0.578125 -5.046875 C 0.578125 -6.003906 0.707031 -6.847656 0.96875 -7.578125 C 1.226562 -8.304688 1.585938 -8.921875 2.046875 -9.421875 C 2.515625 -9.921875 3.0625 -10.289062 3.6875 -10.53125 C 4.320312 -10.78125 5.007812 -10.90625 5.75 -10.90625 C 6.445312 -10.90625 7.054688 -10.765625 7.578125 -10.484375 C 8.109375 -10.210938 8.535156 -9.851562 8.859375 -9.40625 Z M 7.203125 -7.671875 "/></g></g><g style="fill:#ff1616;fill-opacity:1;"><g transform="translate(83.904203, 182.525452)"><path style="stroke:none" d="M 0.578125 -5.046875 C 0.578125 -6.003906 0.710938 -6.847656 0.984375 -7.578125 C 1.265625 -8.304688 1.648438 -8.914062 2.140625 -9.40625 C 2.628906 -9.894531 3.203125 -10.265625 3.859375 -10.515625 C 4.515625 -10.773438 5.222656 -10.90625 5.984375 -10.90625 C 6.648438 -10.90625 7.21875 -10.820312 7.6875 -10.65625 C 8.15625 -10.5 8.539062 -10.273438 8.84375 -9.984375 C 9.144531 -9.691406 9.363281 -9.347656 9.5 -8.953125 C 9.644531 -8.566406 9.71875 -8.144531 9.71875 -7.6875 C 9.71875 -7.175781 9.585938 -6.691406 9.328125 -6.234375 C 9.078125 -5.785156 8.710938 -5.382812 8.234375 -5.03125 C 7.753906 -4.6875 7.175781 -4.398438 6.5 -4.171875 C 5.832031 -3.953125 5.070312 -3.804688 4.21875 -3.734375 C 4.320312 -3.304688 4.503906 -2.957031 4.765625 -2.6875 C 5.023438 -2.425781 5.425781 -2.296875 5.96875 -2.296875 C 6.28125 -2.296875 6.613281 -2.332031 6.96875 -2.40625 C 7.320312 -2.476562 7.648438 -2.554688 7.953125 -2.640625 C 8.304688 -2.742188 8.65625 -2.859375 9 -2.984375 L 9.640625 -0.765625 C 9.253906 -0.578125 8.832031 -0.414062 8.375 -0.28125 C 7.988281 -0.164062 7.539062 -0.0625 7.03125 0.03125 C 6.53125 0.132812 6 0.1875 5.4375 0.1875 C 4.570312 0.1875 3.828125 0.0625 3.203125 -0.1875 C 2.585938 -0.445312 2.082031 -0.800781 1.6875 -1.25 C 1.300781 -1.707031 1.019531 -2.257812 0.84375 -2.90625 C 0.664062 -3.550781 0.578125 -4.265625 0.578125 -5.046875 Z M 5.5625 -8.5 C 5.289062 -8.5 5.054688 -8.421875 4.859375 -8.265625 C 4.671875 -8.109375 4.519531 -7.898438 4.40625 -7.640625 C 4.289062 -7.390625 4.207031 -7.109375 4.15625 -6.796875 C 4.101562 -6.484375 4.066406 -6.175781 4.046875 -5.875 C 4.472656 -5.894531 4.832031 -5.960938 5.125 -6.078125 C 5.414062 -6.191406 5.648438 -6.332031 5.828125 -6.5 C 6.015625 -6.664062 6.148438 -6.847656 6.234375 -7.046875 C 6.328125 -7.253906 6.375 -7.441406 6.375 -7.609375 C 6.375 -7.878906 6.296875 -8.09375 6.140625 -8.25 C 5.992188 -8.414062 5.800781 -8.5 5.5625 -8.5 Z M 5.5625 -8.5 "/></g></g><g style="fill:#ff1616;fill-opacity:1;"><g transform="translate(94.114091, 182.525452)"><path style="stroke:none" d="M 4.515625 -10.890625 C 5.054688 -10.890625 5.554688 -10.84375 6.015625 -10.75 C 6.484375 -10.65625 6.894531 -10.550781 7.25 -10.4375 C 7.65625 -10.300781 8.03125 -10.15625 8.375 -10 L 7.3125 -7.609375 C 7.195312 -7.660156 7.050781 -7.726562 6.875 -7.8125 C 6.695312 -7.90625 6.503906 -7.992188 6.296875 -8.078125 C 6.085938 -8.160156 5.867188 -8.226562 5.640625 -8.28125 C 5.421875 -8.34375 5.203125 -8.375 4.984375 -8.375 C 4.753906 -8.375 4.5625 -8.320312 4.40625 -8.21875 C 4.25 -8.125 4.171875 -7.96875 4.171875 -7.75 C 4.171875 -7.53125 4.316406 -7.304688 4.609375 -7.078125 C 4.898438 -6.859375 5.289062 -6.648438 5.78125 -6.453125 C 6.625 -6.097656 7.273438 -5.675781 7.734375 -5.1875 C 8.203125 -4.695312 8.4375 -4.039062 8.4375 -3.21875 C 8.4375 -2.757812 8.351562 -2.320312 8.1875 -1.90625 C 8.03125 -1.488281 7.789062 -1.125 7.46875 -0.8125 C 7.144531 -0.5 6.742188 -0.25 6.265625 -0.0625 C 5.785156 0.125 5.234375 0.21875 4.609375 0.21875 C 4.109375 0.21875 3.640625 0.179688 3.203125 0.109375 C 2.773438 0.0351562 2.378906 -0.0507812 2.015625 -0.15625 C 1.648438 -0.257812 1.328125 -0.363281 1.046875 -0.46875 C 0.765625 -0.582031 0.535156 -0.679688 0.359375 -0.765625 L 1.46875 -3.21875 C 1.539062 -3.1875 1.664062 -3.117188 1.84375 -3.015625 C 2.019531 -2.921875 2.222656 -2.820312 2.453125 -2.71875 C 2.691406 -2.625 2.941406 -2.535156 3.203125 -2.453125 C 3.472656 -2.378906 3.726562 -2.34375 3.96875 -2.34375 C 4.257812 -2.34375 4.5 -2.398438 4.6875 -2.515625 C 4.882812 -2.628906 4.984375 -2.800781 4.984375 -3.03125 C 4.984375 -3.300781 4.863281 -3.539062 4.625 -3.75 C 4.394531 -3.96875 4.097656 -4.144531 3.734375 -4.28125 C 2.660156 -4.707031 1.894531 -5.1875 1.4375 -5.71875 C 0.976562 -6.25 0.75 -6.914062 0.75 -7.71875 C 0.75 -8.164062 0.832031 -8.582031 1 -8.96875 C 1.164062 -9.351562 1.410156 -9.6875 1.734375 -9.96875 C 2.066406 -10.257812 2.460938 -10.484375 2.921875 -10.640625 C 3.390625 -10.804688 3.921875 -10.890625 4.515625 -10.890625 Z M 4.515625 -10.890625 "/></g></g><g style="fill:#ff1616;fill-opacity:1;"><g transform="translate(103.130338, 182.525452)"><path style="stroke:none" d="M 1.5625 -2.5 C 1.570312 -2.507812 1.613281 -2.535156 1.6875 -2.578125 C 1.769531 -2.628906 1.882812 -2.6875 2.03125 -2.75 C 2.1875 -2.820312 2.382812 -2.878906 2.625 -2.921875 C 2.863281 -2.972656 3.144531 -3 3.46875 -3 C 4.125 -3 4.582031 -2.804688 4.84375 -2.421875 C 5.113281 -2.046875 5.25 -1.59375 5.25 -1.0625 C 5.25 -0.15625 4.984375 0.71875 4.453125 1.5625 C 3.929688 2.40625 3.085938 3.128906 1.921875 3.734375 L 0.6875 2.046875 C 1.195312 1.671875 1.539062 1.273438 1.71875 0.859375 C 1.894531 0.441406 1.984375 0.0351562 1.984375 -0.359375 C 1.984375 -0.796875 1.914062 -1.195312 1.78125 -1.5625 C 1.65625 -1.9375 1.582031 -2.25 1.5625 -2.5 Z M 1.5625 -2.5 "/></g></g><g style="fill:#ff1616;fill-opacity:1;"><g transform="translate(109.503527, 182.525452)"><path style="stroke:none" d="M 1.328125 -14.421875 L 4.84375 -14.421875 L 4.84375 -2.578125 L 9.90625 -2.578125 L 9.90625 0 L 1.328125 0 Z M 1.328125 -14.421875 "/></g></g><g style="fill:#ff1616;fill-opacity:1;"><g transform="translate(119.2658, 182.525452)"><path style="stroke:none" d="M 1.328125 -14.421875 L 4.84375 -14.421875 L 4.84375 -2.578125 L 9.90625 -2.578125 L 9.90625 0 L 1.328125 0 Z M 1.328125 -14.421875 "/></g></g><g style="fill:#ff1616;fill-opacity:1;"><g transform="translate(129.028074, 182.525452)"><path style="stroke:none" d="M 9.53125 -10.90625 C 9.132812 -11.394531 8.75 -11.71875 8.375 -11.875 C 8.007812 -12.039062 7.640625 -12.125 7.265625 -12.125 C 6.335938 -12.125 5.664062 -11.691406 5.25 -10.828125 C 4.832031 -9.972656 4.625 -8.785156 4.625 -7.265625 C 4.625 -6.546875 4.671875 -5.882812 4.765625 -5.28125 C 4.859375 -4.675781 5.015625 -4.160156 5.234375 -3.734375 C 5.460938 -3.304688 5.765625 -2.96875 6.140625 -2.71875 C 6.523438 -2.476562 7 -2.359375 7.5625 -2.359375 C 8.0625 -2.359375 8.546875 -2.421875 9.015625 -2.546875 C 9.492188 -2.671875 9.9375 -2.8125 10.34375 -2.96875 L 11.109375 -0.578125 C 10.660156 -0.390625 10.101562 -0.222656 9.4375 -0.078125 C 8.769531 0.0546875 8.003906 0.125 7.140625 0.125 C 4.953125 0.125 3.351562 -0.492188 2.34375 -1.734375 C 1.332031 -2.984375 0.828125 -4.75 0.828125 -7.03125 C 0.828125 -8.144531 0.957031 -9.160156 1.21875 -10.078125 C 1.488281 -11.003906 1.890625 -11.800781 2.421875 -12.46875 C 2.953125 -13.144531 3.617188 -13.671875 4.421875 -14.046875 C 5.222656 -14.429688 6.171875 -14.625 7.265625 -14.625 C 7.835938 -14.625 8.335938 -14.570312 8.765625 -14.46875 C 9.203125 -14.375 9.582031 -14.242188 9.90625 -14.078125 C 10.238281 -13.910156 10.523438 -13.71875 10.765625 -13.5 C 11.015625 -13.289062 11.238281 -13.070312 11.4375 -12.84375 Z M 9.53125 -10.90625 "/></g></g><g style="fill:#ff1616;fill-opacity:1;"><g transform="translate(140.730014, 182.525452)"><path style="stroke:none" d="M 3.03125 -3.609375 C 3.625 -3.609375 4.078125 -3.425781 4.390625 -3.0625 C 4.710938 -2.707031 4.875 -2.257812 4.875 -1.71875 C 4.875 -1.1875 4.710938 -0.726562 4.390625 -0.34375 C 4.078125 0.03125 3.609375 0.21875 2.984375 0.21875 C 2.390625 0.21875 1.925781 0.0351562 1.59375 -0.328125 C 1.269531 -0.703125 1.109375 -1.140625 1.109375 -1.640625 C 1.109375 -2.191406 1.269531 -2.65625 1.59375 -3.03125 C 1.925781 -3.414062 2.40625 -3.609375 3.03125 -3.609375 Z M 3.03125 -3.609375 "/></g></g><g style="fill:#ff1616;fill-opacity:1;"><g transform="translate(146.741298, 182.525452)"><path style="stroke:none" d=""/></g></g></g></svg>